<svg xmlns="http://www.w3.org/2000/svg" xmlns:xlink="http://www.w3.org/1999/xlink" preserveAspectRatio="xMidYMid" width="158" height="33" viewBox="0 0 158 33">
  <defs>
    <style>

      .cls-2 {
        fill: #ffffff;
      }
    </style>
  </defs>
  <path d="M149.952,21.462 C149.952,21.462 149.958,31.682 149.958,31.682 C149.958,31.682 149.958,31.682 149.958,31.682 C149.958,31.682 149.958,31.693 149.958,31.693 C149.958,31.693 143.187,31.687 143.187,31.687 C143.187,31.687 143.187,31.677 143.187,31.677 C143.187,31.677 143.187,26.253 143.187,26.253 C140.234,29.794 135.696,32.060 130.619,32.060 C125.638,32.060 121.197,29.885 118.229,26.469 C118.229,26.469 118.235,31.682 118.235,31.682 C118.235,31.682 118.235,31.682 118.235,31.682 C118.235,31.682 118.235,31.693 118.235,31.693 C118.235,31.693 111.392,31.693 111.392,31.693 C111.392,31.693 111.392,31.682 111.392,31.682 C111.392,31.682 111.392,7.948 111.392,7.948 C111.392,7.948 108.370,7.948 108.370,7.948 C108.370,7.948 108.367,31.693 108.367,31.693 C108.367,31.693 98.297,31.693 98.297,31.693 C98.297,31.693 97.294,28.686 97.294,28.686 C97.294,28.686 91.903,28.686 91.903,28.686 C91.903,28.686 90.915,31.693 90.915,31.693 C90.915,31.693 86.975,31.693 86.975,31.693 C86.975,31.693 80.921,22.971 80.921,22.971 C80.921,22.971 80.891,31.693 80.891,31.693 C80.891,31.693 74.130,31.693 74.130,31.693 C74.130,31.693 74.130,31.682 74.130,31.682 C74.130,31.682 74.130,0.511 74.130,0.511 C74.130,0.511 74.130,0.499 74.130,0.499 C74.130,0.499 82.061,11.704 82.061,11.704 C82.061,11.704 82.048,2.359 82.048,2.359 C82.048,2.359 82.048,2.359 82.048,2.359 C82.048,2.359 82.048,2.348 82.048,2.348 C82.048,2.348 88.932,2.348 88.932,2.348 C88.932,2.348 88.941,17.382 88.941,17.382 C88.941,17.382 94.485,0.417 94.485,0.417 C94.485,0.417 101.445,21.813 101.530,21.853 C101.530,21.853 101.506,7.948 101.506,7.948 C101.506,7.948 98.514,7.948 98.514,7.948 C98.514,7.948 98.514,7.936 98.514,7.936 C98.514,7.936 98.514,2.359 98.514,2.359 C98.514,2.359 98.514,2.348 98.514,2.348 C98.514,2.348 118.148,2.348 118.148,2.348 C118.148,2.348 118.148,2.359 118.148,2.359 C118.148,2.359 118.148,6.257 118.148,6.257 C118.148,6.257 118.316,6.261 118.316,6.261 C121.281,2.902 125.696,0.770 130.619,0.770 C135.639,0.770 140.135,2.986 143.094,6.462 C143.094,6.462 143.100,0.005 143.100,0.005 C143.100,0.005 151.525,12.018 151.525,12.018 C151.525,12.018 151.546,2.348 151.546,2.348 C151.546,2.348 158.006,2.348 158.006,2.348 C158.006,2.348 158.006,2.359 158.006,2.359 C158.006,2.359 158.006,32.983 158.006,32.983 C158.006,32.983 158.006,32.993 158.006,32.993 C158.006,32.993 149.952,21.462 149.952,21.462 ZM140.120,16.414 C140.116,11.339 135.863,7.229 130.619,7.229 C125.372,7.229 121.125,11.339 121.122,16.414 C121.125,21.491 125.372,25.608 130.619,25.608 C135.863,25.608 140.116,21.491 140.120,16.414 ZM94.591,20.485 C94.591,20.485 93.323,24.369 93.323,24.369 C93.323,24.369 95.880,24.384 95.880,24.384 C95.880,24.384 94.591,20.485 94.591,20.485 ZM65.416,31.700 C65.416,31.700 65.416,24.849 65.416,24.849 C62.544,29.192 57.521,32.060 51.793,32.060 C48.742,32.060 45.887,31.244 43.457,29.817 C43.457,29.817 44.070,31.682 44.070,31.682 C44.070,31.682 44.067,31.682 44.067,31.682 C44.067,31.682 44.070,31.693 44.070,31.693 C44.070,31.693 37.538,31.693 37.538,31.693 C37.538,31.693 36.727,29.256 36.727,29.256 C36.727,29.256 30.975,29.256 30.975,29.256 C30.975,29.256 30.186,31.693 30.186,31.693 C30.186,31.693 20.875,31.693 20.875,31.693 C20.875,31.693 20.845,19.507 20.845,19.507 C20.845,19.507 18.034,22.841 18.034,22.841 C18.034,22.841 15.433,19.634 15.433,19.634 C15.433,19.634 15.433,31.682 15.433,31.682 C15.433,31.682 15.433,31.693 15.433,31.693 C15.433,31.693 8.684,31.693 8.684,31.693 C8.684,31.693 8.684,31.682 8.684,31.682 C8.684,31.682 8.684,0.505 8.684,0.505 C8.684,0.505 8.684,0.493 8.684,0.493 C11.781,4.109 14.803,8.368 18.034,12.192 C18.034,12.192 27.390,0.499 27.390,0.499 C27.390,0.499 27.414,19.759 27.414,19.759 C27.414,19.759 33.729,0.444 33.729,0.444 C33.729,0.444 36.956,10.157 36.956,10.157 C39.487,4.622 45.185,0.770 51.793,0.770 C55.674,0.770 59.233,2.085 62.029,4.284 C62.029,4.284 62.023,4.291 62.023,4.291 C62.025,4.293 62.027,4.294 62.029,4.296 C62.029,4.296 57.964,9.413 57.964,9.413 C56.292,8.053 54.143,7.229 51.793,7.229 C46.555,7.229 42.302,11.339 42.299,16.414 C42.302,21.491 46.555,25.608 51.793,25.608 C56.613,25.608 60.593,22.141 61.216,17.648 C61.216,17.648 50.359,17.648 50.359,17.648 C50.359,17.648 50.359,17.636 50.359,17.636 C50.359,17.636 50.359,11.734 50.359,11.734 C50.359,11.734 50.359,11.723 50.359,11.723 C50.359,11.723 65.416,11.723 65.416,11.723 C65.416,11.723 65.416,2.406 65.416,2.406 C65.416,2.406 65.416,2.394 65.416,2.394 C65.416,2.394 72.213,2.394 72.213,2.394 C72.213,2.394 72.213,2.406 72.213,2.406 C72.213,2.406 72.213,31.700 72.213,31.700 C72.213,31.700 72.213,31.710 72.213,31.710 C72.213,31.710 65.416,31.710 65.416,31.710 C65.416,31.710 65.416,31.700 65.416,31.700 ZM33.856,20.485 C33.856,20.485 32.576,24.369 32.576,24.369 C32.576,24.369 35.108,24.363 35.108,24.363 C35.108,24.363 33.856,20.485 33.856,20.485 ZM-0.006,31.682 C-0.006,31.682 -0.006,2.359 -0.006,2.359 C-0.006,2.359 -0.006,2.348 -0.006,2.348 C-0.006,2.348 6.873,2.348 6.873,2.348 C6.873,2.348 6.873,2.359 6.873,2.359 C6.873,2.359 6.873,31.682 6.873,31.682 C6.873,31.682 6.873,31.693 6.873,31.693 C6.873,31.693 -0.006,31.693 -0.006,31.693 C-0.006,31.693 -0.006,31.682 -0.006,31.682 Z" id="path-1" class="cls-2" fill-rule="evenodd"/>
</svg>
